<svg width="512" height="512" viewBox="0 0 512 512" fill="none" xmlns="http://www.w3.org/2000/svg">
<path d="M496 384H64V80C64 71.16 56.84 64 48 64H16C7.16 64 0 71.16 0 80V416C0 433.67 14.33 448 32 448H496C504.84 448 512 440.84 512 432V400C512 391.16 504.84 384 496 384ZM464 96H345.94C324.56 96 313.85 121.85 328.97 136.97L361.37 169.37L288 242.75L214.63 169.38C202.13 156.88 181.87 156.88 169.38 169.38L100.69 238.07C94.44 244.32 94.44 254.45 100.69 260.7L123.31 283.32C129.56 289.57 139.69 289.57 145.94 283.32L192 237.25L265.37 310.62C277.87 323.12 298.13 323.12 310.62 310.62L406.62 214.62L439.02 247.02C454.14 262.14 479.99 251.43 479.99 230.05V112C480 103.16 472.84 96 464 96Z" fill="#F28500"/>
</svg>
