<svg width="576" height="448" viewBox="0 0 576 448" fill="none" xmlns="http://www.w3.org/2000/svg">
<path d="M0 400C0 426.5 21.5 448 48 448H528C554.5 448 576 426.5 576 400V224H0V400ZM192 332C192 325.4 197.4 320 204 320H340C346.6 320 352 325.4 352 332V372C352 378.6 346.6 384 340 384H204C197.4 384 192 378.6 192 372V332ZM64 332C64 325.4 69.4 320 76 320H148C154.6 320 160 325.4 160 332V372C160 378.6 154.6 384 148 384H76C69.4 384 64 378.6 64 372V332ZM576 48V96H0V48C0 21.5 21.5 0 48 0H528C554.5 0 576 21.5 576 48Z" fill="#F28500"/>
</svg>
