<svg width="384" height="512" viewBox="0 0 384 512" fill="none" xmlns="http://www.w3.org/2000/svg">
<g clip-path="url(#clip0)">
<path d="M358.4 3.19999L320 48L265.6 3.19999C262.837 1.10731 259.466 -0.0252358 256 -0.0252358C252.534 -0.0252358 249.163 1.10731 246.4 3.19999L192 48L137.6 3.19999C134.837 1.10731 131.466 -0.0252358 128 -0.0252358C124.534 -0.0252358 121.163 1.10731 118.4 3.19999L64 48L25.6 3.19999C15 -4.70001 0 2.79999 0 16V496C0 509.2 15 516.7 25.6 508.8L64 464L118.4 508.8C121.163 510.893 124.534 512.025 128 512.025C131.466 512.025 134.837 510.893 137.6 508.8L192 464L246.4 508.8C249.163 510.893 252.534 512.025 256 512.025C259.466 512.025 262.837 510.893 265.6 508.8L320 464L358.4 508.8C368.9 516.7 384 509.2 384 496V16C384 2.79999 369 -4.70001 358.4 3.19999V3.19999ZM320 360C320 364.4 316.4 368 312 368H72C67.6 368 64 364.4 64 360V344C64 339.6 67.6 336 72 336H312C316.4 336 320 339.6 320 344V360ZM320 264C320 268.4 316.4 272 312 272H72C67.6 272 64 268.4 64 264V248C64 243.6 67.6 240 72 240H312C316.4 240 320 243.6 320 248V264ZM320 168C320 172.4 316.4 176 312 176H72C67.6 176 64 172.4 64 168V152C64 147.6 67.6 144 72 144H312C316.4 144 320 147.6 320 152V168Z" fill="#F28500"/>
</g>
<defs>
<clipPath id="clip0">
<rect width="384" height="512" fill="white"/>
</clipPath>
</defs>
</svg>
